<?xml version="1.0" standalone="no"?>
<!DOCTYPE svg PUBLIC "-//W3C//DTD SVG 20010904//EN"
 "http://www.w3.org/TR/2001/REC-SVG-20010904/DTD/svg10.dtd">
<svg version="1.0" xmlns="http://www.w3.org/2000/svg"
 width="100.000000pt" height="100.000000pt" viewBox="0 0 100.000000 100.000000"
 preserveAspectRatio="xMidYMid meet">
<metadata>
Created by potrace 1.11, written by Peter Selinger 2001-2013
</metadata>
<g transform="translate(0.000000,100.000000) scale(0.100000,-0.100000)"
fill="#000000" stroke="none">
<path d="M215 980 c3 -5 -1 -10 -9 -10 -26 0 -18 -23 18 -57 23 -21 42 -30 55
-26 14 3 21 -2 27 -19 11 -31 8 -47 -28 -163 -41 -129 -44 -212 -9 -249 13
-14 36 -28 51 -31 21 -5 35 -20 59 -66 36 -70 39 -97 10 -133 -15 -20 -19 -34
-14 -54 3 -15 10 -49 14 -75 4 -26 14 -54 22 -62 18 -18 93 -30 83 -13 -5 8
-2 9 9 5 11 -4 17 -1 17 8 0 9 6 12 16 8 15 -5 15 -3 -1 20 -9 15 -24 27 -31
27 -22 0 -54 38 -54 64 0 17 10 30 35 45 35 20 54 52 57 97 3 30 19 26 36 -9
11 -23 11 -32 -3 -60 -15 -33 -15 -34 21 -94 34 -57 38 -61 82 -68 34 -5 49
-3 56 7 6 8 20 20 31 26 19 11 19 11 -4 12 -20 0 -21 2 -11 15 10 12 9 15 -6
15 -16 0 -17 2 -4 10 13 8 12 10 -5 11 -11 1 -31 1 -44 1 -53 -3 -65 34 -26
75 13 15 27 40 30 55 9 40 -33 107 -96 153 -30 23 -46 41 -39 45 6 4 8 15 5
26 -4 13 -2 11 6 -4 7 -13 18 -21 25 -18 7 3 14 1 16 -4 2 -5 19 -11 40 -12
20 -2 34 -6 31 -10 -9 -16 26 -7 70 17 47 27 68 55 41 55 -8 0 -12 5 -9 10 11
18 -38 29 -62 14 -26 -17 -63 -19 -63 -3 0 5 5 7 10 4 6 -3 13 2 17 12 3 10
17 27 31 39 20 16 26 32 28 70 3 60 -4 90 -18 76 -6 -6 -16 -8 -23 -6 -17 7
-37 -21 -37 -52 l0 -25 -27 23 c-14 14 -47 35 -74 49 l-48 24 47 3 c28 2 50
-1 54 -8 5 -8 9 -7 13 3 3 8 0 20 -6 27 -9 10 -9 11 0 6 13 -7 43 2 43 14 0 5
-10 6 -22 3 -19 -5 -21 -3 -10 8 6 7 12 23 12 35 0 18 -10 26 -49 39 -28 9
-61 25 -75 36 -18 14 -33 18 -53 13 -63 -16 -98 -57 -109 -131 -3 -21 -7 -46
-10 -56 -3 -10 -1 -16 6 -15 13 3 40 -65 40 -101 0 -13 6 -29 14 -35 30 -23
-13 -107 -61 -121 -33 -9 -63 26 -63 74 0 21 14 81 31 132 17 52 31 110 31
130 -1 43 -36 115 -66 133 -29 19 -80 30 -71 16z m370 -150 c-3 -5 3 -11 12
-13 12 -3 9 -5 -8 -6 -18 -1 -28 5 -32 18 -3 14 0 17 14 14 10 -3 17 -9 14
-13z"/>
</g>
</svg>
